<?xml version="1.0" standalone="no"?>
<!DOCTYPE svg PUBLIC "-//W3C//DTD SVG 20010904//EN"
 "http://www.w3.org/TR/2001/REC-SVG-20010904/DTD/svg10.dtd">
<svg version="1.0" xmlns="http://www.w3.org/2000/svg"
 width="35.000000pt" height="35.000000pt" viewBox="0 0 599.000000 540.000000"
 preserveAspectRatio="xMidYMid meet">

<g transform="translate(0.000000,540.000000) scale(0.100000,-0.100000)"
fill="#000000" stroke="none">
<path d="M1565 5360 c-282 -45 -555 -156 -785 -318 -122 -86 -336 -300 -422
-422 -126 -179 -238 -425 -289 -636 -132 -552 8 -1157 367 -1584 111 -132
2295 -2306 2339 -2328 145 -72 313 -68 447 11 65 38 145 128 180 203 25 53 32
83 36 155 l5 89 62 0 c122 0 235 50 323 144 76 80 113 167 120 278 l5 88 62 0
c114 0 217 42 303 123 92 88 142 201 142 323 l0 64 64 0 c76 0 173 28 237 69
65 41 731 707 811 811 180 233 295 483 359 780 20 92 23 134 24 345 0 215 -2
252 -23 350 -107 502 -373 897 -792 1179 -157 105 -383 203 -570 247 -528 124
-1093 9 -1514 -308 -32 -25 -63 -42 -70 -40 -6 3 -46 30 -89 60 -237 170 -517
281 -815 322 -148 20 -376 18 -517 -5z m435 -170 c117 -12 261 -43 360 -77
148 -50 350 -155 453 -236 l39 -30 -671 -671 c-515 -515 -675 -681 -690 -716
-14 -30 -21 -67 -21 -111 0 -91 38 -166 126 -248 190 -178 497 -224 727 -110
95 47 109 59 409 357 l287 285 48 -43 c118 -104 316 -213 444 -245 l66 -17
580 -581 c399 -400 588 -596 603 -626 64 -128 16 -283 -110 -355 -48 -27 -64
-31 -130 -31 -59 0 -85 6 -120 24 -30 16 -222 200 -595 572 -533 531 -552 549
-588 549 -52 0 -87 -35 -87 -87 0 -36 18 -55 549 -588 376 -377 556 -564 571
-594 64 -128 16 -283 -110 -355 -48 -27 -64 -31 -130 -31 -56 0 -85 6 -112 20
-21 11 -287 269 -592 573 -552 549 -555 552 -596 552 -55 0 -90 -34 -90 -87 0
-37 17 -55 549 -588 377 -378 556 -564 571 -594 105 -210 -90 -441 -316 -376
-59 16 -64 21 -619 576 l-561 559 -42 0 c-57 0 -92 -33 -92 -87 0 -36 19 -56
553 -593 377 -377 560 -568 572 -595 58 -125 7 -280 -114 -348 -44 -25 -66
-31 -120 -31 -129 -2 -43 -80 -1302 1181 -1066 1067 -1151 1155 -1216 1253
-128 195 -209 390 -255 622 -18 93 -22 146 -22 298 0 196 11 276 59 451 211
753 957 1260 1735 1179z m2318 -1 c375 -40 725 -210 992 -482 494 -502 612
-1256 294 -1890 -47 -94 -127 -215 -194 -297 -76 -91 -421 -440 -436 -440 -6
0 -15 15 -18 33 -20 103 -33 118 -582 667 -288 289 -524 530 -524 535 0 6 30
19 68 29 37 11 96 35 132 53 77 40 201 134 224 168 41 62 2 145 -68 145 -27 0
-48 -11 -95 -50 -136 -115 -247 -160 -390 -160 -188 0 -375 87 -581 269 -133
119 -98 137 -472 -235 -172 -171 -334 -325 -359 -342 -91 -61 -143 -76 -264
-76 -87 0 -122 4 -167 21 -83 31 -167 90 -199 142 -57 89 -111 25 698 832 785
782 803 798 1016 906 293 149 605 207 925 172z"/>
<path d="M3900 5165 c-260 -38 -517 -146 -739 -311 -45 -33 -370 -350 -783
-763 -678 -676 -708 -708 -708 -742 0 -29 9 -47 44 -86 127 -142 360 -177 547
-83 29 15 158 135 375 351 330 329 330 329 373 329 53 0 73 -10 138 -73 158
-150 337 -246 500 -266 167 -21 304 23 438 140 32 28 70 55 84 60 40 16 87 2
116 -33 23 -27 26 -39 22 -78 -4 -38 -12 -52 -56 -91 -96 -90 -253 -177 -346
-195 l-37 -7 520 -521 c477 -478 522 -526 551 -587 17 -37 31 -74 31 -83 0 -9
4 -16 8 -16 5 0 105 98 223 217 214 217 285 306 374 468 48 87 111 255 146
390 l34 130 0 245 c0 245 0 245 -33 370 -39 150 -70 235 -130 355 -240 483
-704 813 -1245 885 -103 13 -340 11 -447 -5z"/>
</g>
</svg>
